<?xml version="1.0" encoding="UTF-8"?>
<svg id="Layer_2" data-name="Layer 2" xmlns="http://www.w3.org/2000/svg" viewBox="0 0 331.27 306.1">
  <defs>
    <style>
      .cls-1 {
        fill: #032e4f;
      }

      .cls-2 {
        fill: #12c9da;
      }
    </style>
  </defs>
  <g id="Layer_1-2" data-name="Layer 1">
    <g>
      <path class="cls-1" d="M289.05,82.04c-.15.05-.85,1.52-2.4,2.06-27.08,9.34-53.91,19.36-80.92,28.87-4.02,5.91-1.48,10.92,4.79,13.1,26.4,6.97,52.21,16.91,78.53,23.97l-.09,134.41c-1.48,10.69-15.46,22.07-26.37,21.63l-240.03-.06C9.25,304.43-.04,294.03,0,280.59V25.51C1.24,11.21,10.16,1.64,24.5,0l193.6.48c4.11,1.21,7.65,3.4,10.95,6.05,13.48,10.79,37.83,36.1,49.5,49.5,7.12,8.17,12.47,14.2,10.49,26.01ZM183.19,138.9c-.74-.46-1.1-4.14-1.19-5.31-.33-4.49-.73-28.12.19-30.9,1.16-3.53,14.55.86,12.76-5.96-.58-2.23-24.71-19.64-28.44-23.64-3.54-3.79-4.94-13.28-11.76-9.09-.88.54-5.21,8.06-7.69,10.56-4.29,4.32-25.22,18.59-26.55,21.51-3.27,7.18,10.58,3.75,12.1,5.92,2.58,3.69-1.98,29.21-.7,35.42-1.12,3.41-8.76-.38-11.75,4.25-5.17,7.98,8.58,11.22,8.81,15.82l-7.96,72.04c.77,4.65-2.13,15.83,3.07,18.02l64.52.57c7.38-.95,5.23-10.09,5.44-15.54l-8.09-77.02c.34-3.01,10.05-4.69,10.02-9.99-.07-9.66-10.38-5.14-12.77-6.64ZM43.35,72.33c-4.2,5.22-.52,12.66,6.29,13.62,8.36,1.18,42.8,1.36,50.85.03,9.25-1.53,8.01-14.5,0-15.87s-43.31-1.19-51.97-.11c-1.53.19-4.25,1.2-5.16,2.33ZM48.78,117.28c-8.83,1.63-10.95,12.34-2.02,15.55,9.89-1.36,50.57,2.97,56.68-.89,4.82-3.04,3.55-13.19-3.11-14.69-5.5-1.24-45.58-1.08-51.55.03ZM46.76,165.25c-8.12,1.82-8.65,14.22,1.88,15.7,8.84,1.24,38.96,1.24,47.81,0,10.56-1.48,9.76-14.4,1.03-15.85-6-.99-45.33-1.06-50.73.15ZM246.76,178.25c-2.73.8-4.39,4.64-4.73,7.27-2.27,17.56,1.71,39.9.05,57.99,1.35,6.76,18.82,6.91,19.02-.92-2.06-10.76,3.01-55.35-1.15-61.95-1.99-3.15-9.96-3.34-13.19-2.39ZM224.55,205.04c-2.46-.69-11.1,0-14.5,0-2.1,0-1.33,40.2.24,41.76,2.15,2.14,15.94,3.42,16.81-3.22.5-3.83.33-34.63-.56-36.53-.22-.47-1.64-1.92-1.98-2.02ZM46.76,213.26c-6.56,1.5-6.56,13.06,0,14.57,4.54,1.04,36.72,1.01,41.72.15,7.73-1.33,7.46-13.2.85-14.72-4.07-.93-38.5-.93-42.57,0Z"/>
      <path class="cls-2" d="M289.05,150.04c-26.32-7.06-52.13-17-78.53-23.97-6.27-2.18-8.81-7.19-4.79-13.1,27-9.52,53.84-19.54,80.92-28.87,1.55-.53,2.25-2,2.4-2.06,5.43-1.85,26.36-8.72,30.65-8.95,6.08-.32,9.81,3.62,10.4,9.4,1.6,15.51,1.55,51.54.01,67.11-1.45,14.8-27.18,3.22-36.04.89-1.79-.47-3.82-.13-5.02-.45Z"/>
      <path class="cls-2" d="M183.19,138.9c2.39,1.5,12.71-3.01,12.77,6.64.04,5.3-9.68,6.98-10.02,9.99l8.09,77.02c-.21,5.45,1.95,14.59-5.44,15.54l-64.52-.57c-5.19-2.18-2.29-13.37-3.07-18.02l7.96-72.04c-.23-4.6-13.97-7.84-8.81-15.82,2.99-4.62,10.63-.84,11.75-4.25-1.27-6.21,3.28-31.73.7-35.42-1.52-2.17-15.37,1.27-12.1-5.92,1.33-2.92,22.26-17.18,26.55-21.51,2.48-2.49,6.81-10.02,7.69-10.56,6.82-4.19,8.22,5.3,11.76,9.09,3.73,4,27.86,21.41,28.44,23.64,1.78,6.82-11.6,2.43-12.76,5.96-.92,2.79-.51,26.42-.19,30.9.09,1.18.45,4.85,1.19,5.31ZM154.79,104.27c-1.96.33-4.93,1.4-5.55,3.46-.51,1.69-.56,18.12-.05,19.67.74,2.26,16.08,3.35,16.86-.86.49-2.66.35-16.18-.44-18.56-1.34-4.06-7.25-4.31-10.81-3.71Z"/>
      <path class="cls-2" d="M246.76,178.25c3.23-.95,11.2-.76,13.19,2.39,4.16,6.6-.9,51.19,1.15,61.95-.2,7.83-17.67,7.69-19.02.92,1.66-18.09-2.33-40.43-.05-57.99.34-2.63,2-6.47,4.73-7.27Z"/>
      <path class="cls-2" d="M43.35,72.33c.91-1.14,3.63-2.14,5.16-2.33,8.67-1.08,43.83-1.29,51.97.11s9.26,14.34,0,15.87c-8.05,1.33-42.49,1.15-50.85-.03-6.81-.96-10.49-8.4-6.29-13.62Z"/>
      <path class="cls-2" d="M48.78,117.28c5.98-1.1,46.05-1.26,51.55-.03,6.66,1.5,7.92,11.65,3.11,14.69-6.11,3.86-46.79-.47-56.68.89-8.92-3.2-6.81-13.92,2.02-15.55Z"/>
      <path class="cls-2" d="M46.76,165.25c5.4-1.21,44.73-1.14,50.73-.15,8.73,1.45,9.53,14.37-1.03,15.85-8.85,1.24-38.97,1.24-47.81,0-10.53-1.48-10-13.87-1.88-15.7Z"/>
      <path class="cls-2" d="M224.55,205.04c.34.1,1.76,1.55,1.98,2.02.89,1.9,1.06,32.7.56,36.53-.87,6.63-14.66,5.36-16.81,3.22-1.57-1.57-2.34-41.76-.24-41.76,3.4,0,12.04-.69,14.5,0Z"/>
      <path class="cls-2" d="M46.76,213.26c4.07-.93,38.5-.93,42.57,0,6.62,1.52,6.88,13.39-.85,14.72-5,.86-37.18.89-41.72-.15-6.56-1.5-6.56-13.06,0-14.57Z"/>
      <path class="cls-1" d="M154.79,104.27c3.56-.6,9.48-.35,10.81,3.71.79,2.38.93,15.9.44,18.56-.78,4.21-16.12,3.12-16.86.86-.51-1.55-.46-17.98.05-19.67.62-2.06,3.6-3.13,5.55-3.46Z"/>
    </g>
  </g>
</svg>